<svg id="visual" viewBox="0 0 900 600" width="900" height="600" xmlns="http://www.w3.org/2000/svg" xmlns:xlink="http://www.w3.org/1999/xlink" version="1.1"><rect x="0" y="0" width="900" height="600" fill="#001220"></rect><defs><linearGradient id="grad1_0" x1="33.3%" y1="0%" x2="100%" y2="100%"><stop offset="20%" stop-color="#fbae3c" stop-opacity="1"></stop><stop offset="80%" stop-color="#fbae3c" stop-opacity="1"></stop></linearGradient></defs><defs><linearGradient id="grad1_1" x1="33.3%" y1="0%" x2="100%" y2="100%"><stop offset="20%" stop-color="#fbae3c" stop-opacity="1"></stop><stop offset="80%" stop-color="#e1685e" stop-opacity="1"></stop></linearGradient></defs><defs><linearGradient id="grad1_2" x1="33.3%" y1="0%" x2="100%" y2="100%"><stop offset="20%" stop-color="#96446e" stop-opacity="1"></stop><stop offset="80%" stop-color="#e1685e" stop-opacity="1"></stop></linearGradient></defs><defs><linearGradient id="grad1_3" x1="33.3%" y1="0%" x2="100%" y2="100%"><stop offset="20%" stop-color="#96446e" stop-opacity="1"></stop><stop offset="80%" stop-color="#3d3056" stop-opacity="1"></stop></linearGradient></defs><defs><linearGradient id="grad1_4" x1="33.3%" y1="0%" x2="100%" y2="100%"><stop offset="20%" stop-color="#001220" stop-opacity="1"></stop><stop offset="80%" stop-color="#3d3056" stop-opacity="1"></stop></linearGradient></defs><defs><linearGradient id="grad2_0" x1="0%" y1="0%" x2="66.7%" y2="100%"><stop offset="20%" stop-color="#fbae3c" stop-opacity="1"></stop><stop offset="80%" stop-color="#fbae3c" stop-opacity="1"></stop></linearGradient></defs><defs><linearGradient id="grad2_1" x1="0%" y1="0%" x2="66.7%" y2="100%"><stop offset="20%" stop-color="#e1685e" stop-opacity="1"></stop><stop offset="80%" stop-color="#fbae3c" stop-opacity="1"></stop></linearGradient></defs><defs><linearGradient id="grad2_2" x1="0%" y1="0%" x2="66.7%" y2="100%"><stop offset="20%" stop-color="#e1685e" stop-opacity="1"></stop><stop offset="80%" stop-color="#96446e" stop-opacity="1"></stop></linearGradient></defs><defs><linearGradient id="grad2_3" x1="0%" y1="0%" x2="66.7%" y2="100%"><stop offset="20%" stop-color="#3d3056" stop-opacity="1"></stop><stop offset="80%" stop-color="#96446e" stop-opacity="1"></stop></linearGradient></defs><defs><linearGradient id="grad2_4" x1="0%" y1="0%" x2="66.7%" y2="100%"><stop offset="20%" stop-color="#3d3056" stop-opacity="1"></stop><stop offset="80%" stop-color="#001220" stop-opacity="1"></stop></linearGradient></defs><g transform="translate(900, 0)"><path d="M0 486.7C-39.4 450.9 -78.7 415.1 -132.3 407.1C-185.8 399 -253.5 418.6 -284.5 391.6C-315.5 364.5 -309.7 290.8 -339 246.3C-368.2 201.8 -432.5 186.6 -462.9 150.4C-493.4 114.2 -490.1 57.1 -486.7 0L0 0Z" fill="#18223c"></path><path d="M0 389.4C-31.5 360.8 -63 332.1 -105.8 325.6C-148.6 319.2 -202.8 334.9 -227.6 313.3C-252.4 291.6 -247.8 232.6 -271.2 197C-294.6 161.4 -346 149.3 -370.3 120.3C-394.7 91.4 -392.1 45.7 -389.4 0L0 0Z" fill="#683a67"></path><path d="M0 292C-23.6 270.6 -47.2 249.1 -79.4 244.2C-111.5 239.4 -152.1 251.2 -170.7 234.9C-189.3 218.7 -185.8 174.5 -203.4 147.8C-220.9 121.1 -259.5 111.9 -277.8 90.2C-296 68.5 -294 34.3 -292 0L0 0Z" fill="#c0526a"></path><path d="M0 194.7C-15.7 180.4 -31.5 166.1 -52.9 162.8C-74.3 159.6 -101.4 167.4 -113.8 156.6C-126.2 145.8 -123.9 116.3 -135.6 98.5C-147.3 80.7 -173 74.6 -185.2 60.2C-197.4 45.7 -196 22.8 -194.7 0L0 0Z" fill="#f6884d"></path><path d="M0 97.3C-7.9 90.2 -15.7 83 -26.5 81.4C-37.2 79.8 -50.7 83.7 -56.9 78.3C-63.1 72.9 -61.9 58.2 -67.8 49.3C-73.6 40.4 -86.5 37.3 -92.6 30.1C-98.7 22.8 -98 11.4 -97.3 0L0 0Z" fill="#fbae3c"></path></g><g transform="translate(0, 600)"><path d="M0 -486.7C46.6 -460.7 93.3 -434.6 133.8 -411.8C174.4 -389 208.8 -369.5 256.3 -352.7C303.7 -336 364.1 -322.1 393.8 -286.1C423.4 -250.1 422.4 -192 432.7 -140.6C443.1 -89.2 464.9 -44.6 486.7 0L0 0Z" fill="#18223c"></path><path d="M0 -389.4C37.3 -368.5 74.6 -347.7 107 -329.4C139.5 -311.2 167.1 -295.6 205 -282.2C243 -268.8 291.3 -257.7 315 -228.9C338.8 -200.1 337.9 -153.6 346.2 -112.5C354.5 -71.4 371.9 -35.7 389.4 0L0 0Z" fill="#683a67"></path><path d="M0 -292C28 -276.4 56 -260.8 80.3 -247.1C104.6 -233.4 125.3 -221.7 153.8 -211.6C182.2 -201.6 218.5 -193.3 236.3 -171.7C254.1 -150.1 253.4 -115.2 259.6 -84.4C265.9 -53.5 279 -26.8 292 0L0 0Z" fill="#c0526a"></path><path d="M0 -194.7C18.7 -184.3 37.3 -173.8 53.5 -164.7C69.7 -155.6 83.5 -147.8 102.5 -141.1C121.5 -134.4 145.7 -128.8 157.5 -114.4C169.4 -100 168.9 -76.8 173.1 -56.2C177.2 -35.7 186 -17.8 194.7 0L0 0Z" fill="#f6884d"></path><path d="M0 -97.3C9.3 -92.1 18.7 -86.9 26.8 -82.4C34.9 -77.8 41.8 -73.9 51.3 -70.5C60.7 -67.2 72.8 -64.4 78.8 -57.2C84.7 -50 84.5 -38.4 86.5 -28.1C88.6 -17.8 93 -8.9 97.3 0L0 0Z" fill="#fbae3c"></path></g></svg>